<svg xmlns="http://www.w3.org/2000/svg" viewBox="0 0 64 48" preserveAspectRatio="xMidYMid slice">
  <defs>
    <linearGradient id="bg" x1="0" y1="0" x2="0" y2="1">
      <stop offset="0%" stop-color="#e0f2fe"/>
      <stop offset="100%" stop-color="#c7defb"/>
    </linearGradient>
    <radialGradient id="ocean" cx="36%" cy="30%" r="75%">
      <stop offset="0%" stop-color="#38bdf8"/>
      <stop offset="50%" stop-color="#2563eb"/>
      <stop offset="100%" stop-color="#1e3a8a"/>
    </radialGradient>
    <radialGradient id="spec" cx="32%" cy="26%" r="45%">
      <stop offset="0%" stop-color="#ffffff" stop-opacity="0.6"/>
      <stop offset="100%" stop-color="#ffffff" stop-opacity="0"/>
    </radialGradient>
    <clipPath id="g"><circle cx="32" cy="24" r="18"/></clipPath>
  </defs>

  <rect width="64" height="48" fill="url(#bg)"/>
  <ellipse cx="32" cy="44.5" rx="13.5" ry="2.2" fill="#1e3a8a" opacity="0.16"/>

  <circle cx="32" cy="24" r="18" fill="url(#ocean)"/>

  <g clip-path="url(#g)">
    <g fill="#6ee7b7" opacity="0.95">
      <path d="M19 15 q6 -4 11 -1 q4 3 0 7 q-5 4 -10 2 q-4 -4 -1 -8z"/>
      <path d="M35 12 q6 -1 8 4 q1 4 -4 5 q-5 0 -6 -4 q-1 -3 2 -5z"/>
      <path d="M23 29 q6 -3 11 1 q3 3 -1 6 q-6 3 -11 0 q-3 -4 1 -7z"/>
      <path d="M39 30 q4 -1 5 3 q0 4 -4 4 q-4 -1 -3 -5 q0 -1 2 -2z"/>
    </g>
    <g stroke="#ffffff" stroke-width="0.5" fill="none" opacity="0.42">
      <ellipse cx="32" cy="24" rx="18" ry="7"/>
      <ellipse cx="32" cy="24" rx="18" ry="14"/>
      <ellipse cx="32" cy="24" rx="7" ry="18"/>
      <ellipse cx="32" cy="24" rx="14" ry="18"/>
      <line x1="14" y1="24" x2="50" y2="24"/>
    </g>
    <ellipse cx="25" cy="17" rx="11" ry="7.5" fill="url(#spec)"/>
  </g>

  <circle cx="32" cy="24" r="18" fill="none" stroke="#ffffff" stroke-width="0.8" opacity="0.55"/>
  <circle cx="32" cy="24" r="17.5" fill="none" stroke="#1e3a8a" stroke-width="0.6" opacity="0.22"/>
</svg>
