<svg xmlns="http://www.w3.org/2000/svg" viewBox="0 0 64 48" preserveAspectRatio="xMidYMid slice">
  <defs>
    <linearGradient id="sky" x1="0" y1="0" x2="0" y2="1">
      <stop offset="0%" stop-color="#3b82f6"/>
      <stop offset="100%" stop-color="#1e40af"/>
    </linearGradient>
    <radialGradient id="sphere" cx="38%" cy="36%" r="60%">
      <stop offset="0%" stop-color="#60a5fa"/>
      <stop offset="55%" stop-color="#2563eb"/>
      <stop offset="100%" stop-color="#1e3a8a"/>
    </radialGradient>
  </defs>
  <rect width="64" height="48" fill="url(#sky)"/>
  <g transform="translate(32 24)">
    <circle r="17" fill="url(#sphere)"/>
    <g stroke="rgba(255,255,255,0.35)" stroke-width="0.6" fill="none">
      <ellipse cx="0" cy="0" rx="17" ry="17"/>
      <ellipse cx="0" cy="0" rx="17" ry="6"/>
      <ellipse cx="0" cy="0" rx="6" ry="17"/>
      <ellipse cx="0" cy="0" rx="12" ry="17"/>
      <line x1="-17" y1="0" x2="17" y2="0"/>
    </g>
    <g fill="rgba(255,255,255,0.7)">
      <path d="M-9 -3 c2 -2 5 -1 6 1 c1 2 -1 4 -3 4 c-3 0 -5 -3 -3 -5z"/>
      <path d="M2 -7 c2 0 4 1 5 3 c1 2 -1 3 -3 2 c-2 -1 -3 -3 -2 -5z"/>
      <path d="M-2 6 c3 -1 6 1 6 3 c0 2 -3 3 -5 2 c-2 -1 -3 -4 -1 -5z"/>
    </g>
    <circle r="17" fill="none" stroke="rgba(255,255,255,0.15)" stroke-width="1.2"/>
  </g>
</svg>
